<svg width="196.000000" height="32.000000" viewBox="0 0 196 32" fill="none" xmlns="http://www.w3.org/2000/svg" xmlns:xlink="http://www.w3.org/1999/xlink">
	<desc>
			Created with Pixso.
	</desc>
	<defs/>
	<path id="DOZER" d="M61.16 0Q65.33 0 68.54 0.49C70.68 0.78 72.66 1.31 74.48 2.05C76.3 2.8 77.78 3.78 78.92 5C80.1 6.19 81 7.71 81.65 9.56C82.29 11.38 82.62 13.52 82.62 16C82.62 18.44 82.32 20.55 81.74 22.34C81.18 24.13 80.36 25.65 79.27 26.9C78.22 28.12 76.81 29.12 75.05 29.89C73.32 30.64 71.36 31.18 69.16 31.5C66.96 31.83 64.4 32 61.46 32C54.19 32 48.9 30.65 45.59 27.97Q44.89 27.39 44.28 26.72Q40.66 22.69 40.66 15.41Q40.66 9.43 43.59 5.82Q44.51 4.69 45.72 3.79Q50.78 0 61.16 0ZM119.28 10.59L119.28 0.49L84.32 0.49L84.32 9.2L104.64 9.2L84.32 21.85L84.32 31.86L119.28 31.86L119.28 23.19L99.32 23.19L119.28 10.59ZM122.05 0.49L156.13 0.49L156.13 9.2L132.3 9.2L132.3 11.97L154.64 11.97L154.64 20.33L132.3 20.33L132.3 23.15L156.13 23.15L156.13 31.86L122.05 31.86L122.05 0.49ZM182.06 0.49L159.36 0.49L159.36 31.86L169.61 31.86L169.61 24.44L178.89 24.44L184.17 31.82L196 31.86L189.66 22.61C193.44 20.49 195.34 16.96 195.34 12.02C195.34 10.47 195.13 9.08 194.72 7.86C194.34 6.64 193.84 5.64 193.22 4.87C192.64 4.06 191.91 3.38 191.03 2.81C190.15 2.21 189.31 1.78 188.52 1.51Q187.38 1.07 185.93 0.84C184.99 0.67 184.25 0.56 183.73 0.53C183.2 0.5 182.64 0.49 182.06 0.49ZM21.24 31.86L0 31.86L0 0.58L21.1 0.58Q24.09 0.58 26.42 0.93Q28.75 1.25 31.13 2.27Q33.5 3.26 35.09 4.96C36.14 6.06 36.99 7.56 37.64 9.47C38.31 11.38 38.65 13.63 38.65 16.22C38.65 18.54 38.3 20.63 37.59 22.48C36.89 24.32 35.97 25.83 34.82 26.99C33.68 28.12 32.33 29.08 30.78 29.85Q28.45 30.97 26.07 31.41C24.52 31.71 22.91 31.86 21.24 31.86ZM61.55 23.77C64.66 23.77 67.06 23.13 68.76 21.85C70.46 20.57 71.31 18.62 71.31 16C71.31 13.46 70.42 11.54 68.63 10.23Q65.95 8.22 61.42 8.22Q59.05 8.22 57.24 8.75C56.04 9.08 55.04 9.59 54.25 10.27C53.49 10.96 52.92 11.78 52.54 12.73C52.16 13.69 51.97 14.77 51.97 16C51.97 18.35 52.77 20.24 54.38 21.67C56 23.07 58.39 23.77 61.55 23.77ZM20.53 23.32Q22.95 23.32 24.66 22.39C25.81 21.73 26.64 20.88 27.17 19.84Q27.96 18.27 27.96 16.26Q27.96 13.54 26.67 11.75L26.67 11.75L26.67 11.75L26.67 11.75Q26.44 11.42 26.16 11.12C24.99 9.81 23.11 9.16 20.53 9.16L10.24 9.16L10.24 23.32L20.53 23.32ZM184.91 12.33C184.91 14.3 183.64 15.28 181.09 15.28L169.61 15.28L169.61 9.65L180.91 9.65Q183.67 9.65 184.53 10.93Q184.91 11.5 184.91 12.33Z" fill="#FFFFFF" fill-opacity="1.000000" fill-rule="evenodd"/>
</svg>
