<svg width="96.918945" height="23.815430" viewBox="0 0 96.9189 23.8154" fill="none" xmlns="http://www.w3.org/2000/svg" xmlns:xlink="http://www.w3.org/1999/xlink">
	<desc>
			Created with Pixso.
	</desc>
	<defs>
		<filter id="filter_75_37_dd" x="0.000000" y="0.000000" width="96.918945" height="23.815430" filterUnits="userSpaceOnUse" color-interpolation-filters="sRGB">
			<feFlood flood-opacity="0" result="BackgroundImageFix"/>
			<feColorMatrix in="SourceAlpha" type="matrix" values="0 0 0 0 0 0 0 0 0 0 0 0 0 0 0 0 0 0 127 0" result="hardAlpha"/>
			<feOffset dx="0" dy="4"/>
			<feGaussianBlur stdDeviation="1.33333"/>
			<feComposite in2="hardAlpha" operator="out" k2="-1" k3="1"/>
			<feColorMatrix type="matrix" values="0 0 0 0 0 0 0 0 0 0 0 0 0 0 0 0 0 0 0.25 0"/>
			<feBlend mode="normal" in2="BackgroundImageFix" result="effect_dropShadow_1"/>
			<feBlend mode="normal" in="SourceGraphic" in2="effect_dropShadow_1" result="shape"/>
		</filter>
	</defs>
	<g filter="url(#filter_75_37_dd)">
		<path id="DOZER" d="M31.83 1C33.05 1 34.13 1.07 35.07 1.21Q36.48 1.4 37.68 1.88C38.48 2.2 39.12 2.63 39.63 3.16C40.14 3.67 40.54 4.33 40.82 5.12C41.11 5.91 41.25 6.83 41.25 7.9Q41.25 9.48 40.86 10.64C40.62 11.41 40.26 12.07 39.78 12.61C39.32 13.14 38.7 13.57 37.93 13.9C37.17 14.23 36.31 14.46 35.34 14.6C34.38 14.74 33.25 14.81 31.97 14.81C28.78 14.81 26.45 14.23 25 13.07Q24.66 12.8 24.37 12.47Q22.84 10.74 22.84 7.65Q22.84 5.12 24.08 3.57L24.08 3.57Q24.5 3.05 25.06 2.64Q27.28 1 31.83 1ZM57.34 5.57L57.34 1.21L42 1.21L42 4.97L50.91 4.97L42 10.43L42 14.75L57.34 14.75L57.34 11.01L48.58 11.01L57.34 5.57ZM58.55 1.21L73.5 1.21L73.5 4.97L63.05 4.97L63.05 6.17L72.85 6.17L72.85 9.77L63.05 9.77L63.05 10.99L73.5 10.99L73.5 14.75L58.55 14.75L58.55 1.21ZM84.88 1.21L74.92 1.21L74.92 14.75L79.42 14.75L79.42 11.55L83.49 11.55L85.8 14.73L91 14.75L88.22 10.76C89.88 9.85 90.71 8.32 90.71 6.19C90.71 5.52 90.62 4.92 90.44 4.39C90.27 3.86 90.05 3.43 89.78 3.1C89.52 2.75 89.2 2.45 88.81 2.21C88.43 1.95 88.06 1.77 87.71 1.65C87.38 1.52 87 1.43 86.58 1.36C86.16 1.28 85.84 1.24 85.61 1.23C85.38 1.21 85.14 1.21 84.88 1.21ZM14.31 14.75L5 14.75L5 1.25L14.26 1.25Q15.57 1.25 16.59 1.4C17.27 1.49 17.96 1.68 18.66 1.98Q19.7 2.4 20.39 3.14C20.86 3.61 21.23 4.26 21.51 5.09Q21.96 6.32 21.96 8Q21.96 9.5 21.49 10.7C21.18 11.5 20.78 12.15 20.28 12.65C19.78 13.14 19.18 13.55 18.5 13.88C17.82 14.21 17.13 14.43 16.44 14.56Q15.41 14.75 14.31 14.75ZM32 11.26Q34.05 11.26 35.17 10.43C35.91 9.88 36.29 9.03 36.29 7.9C36.29 6.81 35.9 5.98 35.11 5.41Q33.93 4.55 31.95 4.55Q30.91 4.55 30.11 4.78C29.59 4.92 29.15 5.14 28.8 5.43C28.47 5.73 28.22 6.08 28.05 6.49Q27.8 7.11 27.8 7.9Q27.8 8.84 28.2 9.55L28.2 9.55Q28.45 10 28.86 10.35Q29.92 11.26 32 11.26ZM14.01 11.07Q15.07 11.07 15.82 10.66C16.32 10.38 16.69 10.01 16.92 9.56C17.15 9.11 17.27 8.6 17.27 8.02C17.27 7.09 17 6.35 16.48 5.8Q16.47 5.8 16.47 5.79Q15.7 4.95 14.01 4.95L9.49 4.95L9.49 11.07L14.01 11.07ZM86.13 6.32C86.13 7.17 85.57 7.59 84.45 7.59L79.42 7.59L79.42 5.16L84.38 5.16C85.55 5.16 86.13 5.55 86.13 6.32Z" fill="#FFFFFF" fill-opacity="1.000000" fill-rule="evenodd"/>
		<path id="DOZER" d="M35.21 0.22Q33.74 0 31.83 0Q26.95 0 24.47 1.83Q23.8 2.32 23.3 2.94Q22.81 3.55 22.48 4.3Q22.43 4.42 22.38 4.54Q21.89 3.25 21.12 2.45Q21.05 2.38 20.99 2.31Q20.18 1.52 19.05 1.06Q17.88 0.56 16.74 0.41Q15.64 0.25 14.26 0.25L4 0.25L4 15.75L14.31 15.75Q15.51 15.75 16.62 15.54Q17.79 15.33 18.94 14.78Q20.11 14.21 20.98 13.36Q21.87 12.47 22.41 11.1Q22.43 11.16 22.45 11.21Q22.85 12.22 23.52 13.01Q23.9 13.47 24.38 13.86Q26.83 15.81 31.97 15.81Q33.97 15.81 35.49 15.59Q37.06 15.36 38.33 14.82Q39.69 14.23 40.53 13.27L40.54 13.27Q40.78 12.98 41 12.67L41 15.75L80.42 15.75L80.42 12.55L82.98 12.55L85.29 15.73L92.91 15.76L89.62 11.02Q90.11 10.62 90.49 10.14Q90.75 9.79 90.96 9.41Q91.71 8.04 91.71 6.19Q91.71 5.02 91.39 4.09Q91.08 3.13 90.57 2.49Q90.49 2.37 90.39 2.27Q89.96 1.75 89.36 1.37Q88.69 0.92 88.05 0.71Q87.46 0.49 86.74 0.38Q86.07 0.25 85.67 0.23Q85.29 0.21 84.88 0.21L41 0.21L41 3.25Q40.7 2.82 40.34 2.46Q39.44 1.52 38.05 0.95Q36.74 0.43 35.21 0.22ZM39.63 3.16C39.12 2.63 38.48 2.2 37.68 1.88Q36.48 1.4 35.07 1.21C34.13 1.07 33.05 1 31.83 1Q27.28 1 25.06 2.64Q24.5 3.05 24.08 3.57L24.08 3.57Q23.08 4.81 22.89 6.69Q22.84 7.15 22.84 7.65Q22.84 8.33 22.91 8.94Q23.17 11.12 24.37 12.47Q24.66 12.8 25 13.07C26.45 14.23 28.78 14.81 31.97 14.81C33.25 14.81 34.38 14.74 35.34 14.6C36.31 14.46 37.17 14.23 37.93 13.9C38.7 13.57 39.32 13.14 39.78 12.61C40.26 12.07 40.62 11.41 40.86 10.64Q40.94 10.42 41 10.18Q41.04 10 41.08 9.82Q41.25 8.96 41.25 7.9C41.25 7.2 41.19 6.55 41.06 5.97C41.04 5.87 41.02 5.78 41 5.69C40.95 5.49 40.89 5.31 40.82 5.12C40.54 4.33 40.14 3.67 39.63 3.16ZM42.08 5.97Q42.25 6.86 42.25 7.9Q42.25 8.55 42.19 9.14L47.36 5.97L42.08 5.97ZM49 4.97L50.91 4.97L49.28 5.97L42 10.43L42 14.75L57.34 14.75L57.34 11.01L48.58 11.01L50.19 10.01L57.34 5.57L57.34 1.21L42 1.21L42 4.97L49 4.97ZM52.08 10.01L57.55 10.01L57.55 6.61L52.08 10.01ZM73.92 5.97L73.85 5.97L73.85 9.99L73.92 9.99L73.92 5.97ZM64.05 9.77L72.85 9.77L72.85 6.17L63.05 6.17L63.05 4.97L73.5 4.97L73.5 1.21L58.55 1.21L58.55 14.75L73.5 14.75L73.5 10.99L63.05 10.99L63.05 9.77L64.05 9.77ZM86.58 1.36C86.16 1.28 85.84 1.24 85.61 1.23Q85.26 1.21 84.88 1.21L74.92 1.21L74.92 14.75L79.42 14.75L79.42 11.55L83.49 11.55L85.8 14.73L89.77 14.75L91 14.75L90.3 13.75L88.79 11.58L88.22 10.76C88.52 10.59 88.8 10.4 89.04 10.2C90.15 9.27 90.71 7.93 90.71 6.19C90.71 5.52 90.62 4.92 90.44 4.39C90.27 3.86 90.05 3.43 89.78 3.1C89.52 2.75 89.2 2.45 88.81 2.21C88.43 1.95 88.06 1.77 87.71 1.65C87.38 1.52 87 1.43 86.58 1.36ZM21.91 8.94Q21.96 8.49 21.96 8Q21.96 7.31 21.88 6.7Q21.77 5.82 21.51 5.09C21.23 4.26 20.86 3.61 20.39 3.14Q19.7 2.4 18.66 1.98C17.96 1.68 17.27 1.49 16.59 1.4Q15.57 1.25 14.26 1.25L5 1.25L5 14.75L14.31 14.75Q15.41 14.75 16.44 14.56C17.13 14.43 17.82 14.21 18.5 13.88C19.18 13.55 19.78 13.14 20.28 12.65C20.78 12.15 21.18 11.5 21.49 10.7Q21.81 9.89 21.91 8.94ZM30.11 4.78Q30.91 4.55 31.95 4.55Q33.93 4.55 35.11 5.41C35.9 5.98 36.29 6.81 36.29 7.9C36.29 9.03 35.91 9.88 35.17 10.43Q34.05 11.26 32 11.26Q29.92 11.26 28.86 10.35Q28.45 10 28.2 9.55L28.2 9.55Q27.8 8.84 27.8 7.9Q27.8 7.11 28.05 6.49C28.22 6.08 28.47 5.73 28.8 5.43C29.15 5.14 29.59 4.92 30.11 4.78ZM16.48 5.8Q16.47 5.8 16.47 5.79Q15.7 4.95 14.01 4.95L9.49 4.95L9.49 11.07L14.01 11.07Q15.07 11.07 15.82 10.66C16.32 10.38 16.69 10.01 16.92 9.56C17.15 9.11 17.27 8.6 17.27 8.02C17.27 7.09 17 6.35 16.48 5.8ZM10.49 10.07L14.01 10.07Q14.81 10.07 15.34 9.79Q15.82 9.51 16.03 9.1Q16.27 8.64 16.27 8.02Q16.27 7.08 15.8 6.54Q15.78 6.52 15.75 6.49L15.74 6.48L15.74 6.47Q15.26 5.95 14.01 5.95L10.49 5.95L10.49 10.07ZM85.13 6.28Q85.13 6.3 85.13 6.32Q85.13 6.46 85.11 6.48Q85.06 6.52 84.94 6.54Q84.75 6.59 84.45 6.59L80.42 6.59L80.42 6.16L84.38 6.16Q84.71 6.16 84.93 6.21Q85.07 6.24 85.13 6.28ZM79.42 6.16L79.42 5.16L84.38 5.16C85.55 5.16 86.13 5.55 86.13 6.32C86.13 7.17 85.57 7.59 84.45 7.59L79.42 7.59L79.42 6.16ZM34.9 9.3Q34.76 9.49 34.57 9.63Q33.72 10.26 32 10.26Q30.29 10.26 29.52 9.6Q29.19 9.32 29.02 8.96Q29 8.92 28.98 8.88Q28.8 8.46 28.8 7.9Q28.8 7.31 28.98 6.87Q29.08 6.6 29.26 6.39Q29.35 6.28 29.45 6.19Q29.8 5.9 30.37 5.74L30.38 5.74L30.39 5.74Q31.05 5.55 31.95 5.55Q33.61 5.55 34.53 6.22Q34.84 6.45 35.02 6.76Q35.06 6.82 35.09 6.89Q35.29 7.31 35.29 7.9Q35.29 8.54 35.09 8.98Q35.02 9.16 34.9 9.3Z" fill="#000000" fill-opacity="1.000000" fill-rule="evenodd"/>
	</g>
</svg>
